<svg id="Laag_1" data-name="Laag 1" xmlns="http://www.w3.org/2000/svg" viewBox="0 0 1000 1000"><defs><style>.cls-1{fill:#fff;}.cls-2{fill:#1a1a1a;}</style></defs><path class="cls-1" d="M951.26,159a806.24,806.24,0,0,0-80.51-48.43A868.06,868.06,0,0,0,781.43,70c-32.57-12.68-58.69-20.61-71.27-24.28-21-6.11-38.58-10.35-50.72-13.08-14.69-3.3-39.21-8.39-70-12.61-15.18-2.09-31.67-4.32-53.93-5.64a598.89,598.89,0,0,0-71.12,0c-22.26,1.32-38.75,3.55-53.93,5.64-30.79,4.22-55.32,9.32-69.95,12.61-12.14,2.73-29.74,7-50.72,13.08-12.58,3.67-38.7,11.6-71.27,24.28a868.06,868.06,0,0,0-89.32,40.63A806.24,806.24,0,0,0,48.74,159C28.93,172.68,12.56,185.4,0,195.68L280.93,857.13l10.78-5.3c10.45-5.13,11.09-5.46,12.09-5.94,9.43-4.55,17.24-7.59,21.07-9.08a301.6,301.6,0,0,1,34.34-10.89,430.81,430.81,0,0,1,43.65-9c6.13-1,23.9-3.77,47.42-5.67,14-1.13,30.74-2,49.72-2s35.73.88,49.72,2c23.52,1.9,41.29,4.68,47.42,5.67a430.81,430.81,0,0,1,43.65,9,301.6,301.6,0,0,1,34.34,10.89c3.83,1.49,11.64,4.53,21.07,9.08,1,.48,1.64.81,12.09,5.94l10.78,5.3L1000,195.68C987.44,185.4,971.07,172.68,951.26,159ZM500,728.43c-174.56,0-316.07-141.51-316.07-316.08S325.44,96.28,500,96.28,816.07,237.79,816.07,412.35,674.56,728.43,500,728.43Z" transform="translate(0 -13.28)"/><path class="cls-2" d="M495.45,964.06Q519.32,898,543.2,831.85a333.37,333.37,0,0,1,161.72,45.44Z" transform="translate(0 -13.28)"/><polygon class="cls-1" points="499.71 83 601.54 260.91 802.21 302.77 664.48 454.6 686.67 658.38 499.71 574.3 312.76 658.38 334.95 454.6 197.22 302.77 397.88 260.91 499.71 83"/><path class="cls-1" d="M520.37,976.16,733,889.1l52.8-126.39a307.21,307.21,0,0,0,214.16,119C945.43,916,847.82,967,716.49,982.24A673.24,673.24,0,0,1,520.37,976.16Z" transform="translate(0 -13.28)"/></svg>