<?xml version="1.0" encoding="utf-8"?>
<svg version="1.1" id="Laag_1" xmlns="http://www.w3.org/2000/svg" x="0px"
	 y="0px"
	 viewBox="0 0 1000 1000" style="enable-background:new 0 0 1000 1000;" xml:space="preserve">
<style type="text/css">
	.st0{fill:#C2000B;}
	.st1{fill:#1A1A1A;}
</style>
    <path class="st0" d="M951.26,157.22c-8.38-5.79-38.24-26.14-80.5-48.42c-13.5-7.12-45.83-23.69-89.32-40.63
	c-32.57-12.68-58.69-20.61-71.26-24.28c-20.98-6.11-38.57-10.35-50.71-13.08c-14.7-3.3-39.21-8.39-69.95-12.61
	c-15.18-2.08-31.67-4.31-53.93-5.64c-26.1-1.55-49.97-1.26-71.11,0c-22.26,1.32-38.75,3.55-53.93,5.64
	c-30.78,4.23-55.31,9.32-69.95,12.61c-12.14,2.73-29.73,6.97-50.71,13.08c-12.58,3.67-38.7,11.6-71.26,24.28
	c-43.49,16.93-75.82,33.51-89.32,40.63c-42.26,22.28-72.12,42.64-80.5,48.42c-19.81,13.67-36.18,26.39-48.74,36.67L280.98,855.3
	c1.79-0.88,9-4.43,10.78-5.3c10.44-5.13,11.09-5.46,12.09-5.94c9.42-4.55,17.23-7.59,21.06-9.08c14.41-5.61,26.29-8.77,34.34-10.89
	c18.18-4.78,32.15-7.09,43.65-8.96c6.13-1,23.9-3.78,47.41-5.67c13.99-1.13,30.74-2,49.72-2.01c18.98,0.01,35.73,0.88,49.72,2.01
	c23.52,1.9,41.28,4.68,47.41,5.67c11.49,1.87,25.47,4.17,43.65,8.96c8.05,2.12,19.93,5.28,34.34,10.89
	c3.83,1.49,11.64,4.53,21.06,9.08c1,0.48,1.65,0.81,12.09,5.94c1.79,0.88,9,4.42,10.78,5.3L1000,193.88
	C987.44,183.61,971.07,170.89,951.26,157.22z M500.03,726.6c-174.55,0-316.05-141.5-316.05-316.05S325.48,94.49,500.03,94.49
	c174.55,0,316.06,141.5,316.06,316.05S674.58,726.6,500.03,726.6z"/>
    <path class="st1" d="M495.48,962.22c15.92-44.07,31.84-88.14,47.75-132.2c22.77,0.45,53.37,3.37,87.97,13.59
	c30.7,9.06,55.45,21.18,73.74,31.86C635.12,904.38,565.3,933.3,495.48,962.22z"/>
    <polygon class="st0" points="499.75,94.49 601.57,272.39 802.22,314.26 664.5,466.07 686.69,669.84 499.75,585.77 312.8,669.84
	334.99,466.07 197.27,314.26 397.92,272.39 "/>
    <path class="st0" d="M520.4,974.32c70.89-29.02,141.77-58.04,212.66-87.06c17.6-42.12,35.2-84.25,52.8-126.37
	c16.16,21.08,47.23,56,97.26,83.18c47.29,25.7,90.91,33.29,116.89,35.83c-54.57,34.3-152.17,85.23-283.49,100.51
	C637.84,989.56,570.29,983.22,520.4,974.32z"/>
</svg>
